<svg xmlns="http://www.w3.org/2000/svg" width="500" height="200" viewBox="0 0 500 200">
  <defs>
    <!-- Multi-colored Lego Brick Pattern -->
    <pattern id="multiColorBrickPattern" x="0" y="0" width="500" height="100" patternUnits="userSpaceOnUse">
      
      <!-- Row 1 - Offset pattern -->
      <!-- Red Brick -->
      <rect x="0" y="0" width="100" height="40" fill="#DC3545" stroke="#C82333" stroke-width="1"/>
      <circle cx="25" cy="20" r="8" fill="#E57373" stroke="#C82333" stroke-width="1"/>
      <circle cx="75" cy="20" r="8" fill="#E57373" stroke="#C82333" stroke-width="1"/>
      <rect x="0" y="0" width="100" height="3" fill="#E57373"/>
      <rect x="0" y="37" width="100" height="3" fill="#A71E2A"/>
      
      <!-- Blue Brick -->
      <rect x="100" y="0" width="100" height="40" fill="#007BFF" stroke="#0056B3" stroke-width="1"/>
      <circle cx="125" cy="20" r="8" fill="#3399FF" stroke="#0056B3" stroke-width="1"/>
      <circle cx="175" cy="20" r="8" fill="#3399FF" stroke="#0056B3" stroke-width="1"/>
      <rect x="100" y="0" width="100" height="3" fill="#3399FF"/>
      <rect x="100" y="37" width="100" height="3" fill="#0043A3"/>
      
      <!-- Yellow Brick -->
      <rect x="200" y="0" width="100" height="40" fill="#FFC107" stroke="#E0A800" stroke-width="1"/>
      <circle cx="225" cy="20" r="8" fill="#FFD54F" stroke="#E0A800" stroke-width="1"/>
      <circle cx="275" cy="20" r="8" fill="#FFD54F" stroke="#E0A800" stroke-width="1"/>
      <rect x="200" y="0" width="100" height="3" fill="#FFD54F"/>
      <rect x="200" y="37" width="100" height="3" fill="#B8860B"/>
      
      <!-- Green Brick -->
      <rect x="300" y="0" width="100" height="40" fill="#28A745" stroke="#1E7E34" stroke-width="1"/>
      <circle cx="325" cy="20" r="8" fill="#5CBF72" stroke="#1E7E34" stroke-width="1"/>
      <circle cx="375" cy="20" r="8" fill="#5CBF72" stroke="#1E7E34" stroke-width="1"/>
      <rect x="300" y="0" width="100" height="3" fill="#5CBF72"/>
      <rect x="300" y="37" width="100" height="3" fill="#155724"/>
      
      <!-- Orange Brick -->
      <rect x="400" y="0" width="100" height="40" fill="#FF6B35" stroke="#E55A2B" stroke-width="1"/>
      <circle cx="425" cy="20" r="8" fill="#FF8563" stroke="#E55A2B" stroke-width="1"/>
      <circle cx="475" cy="20" r="8" fill="#FF8563" stroke="#E55A2B" stroke-width="1"/>
      <rect x="400" y="0" width="100" height="3" fill="#FF8563"/>
      <rect x="400" y="37" width="100" height="3" fill="#D44820"/>
      
      <!-- Row 2 - Offset by 50px -->
      <!-- Orange Brick -->
      <rect x="-50" y="40" width="100" height="40" fill="#FF6B35" stroke="#E55A2B" stroke-width="1"/>
      <circle cx="-25" cy="60" r="8" fill="#FF8563" stroke="#E55A2B" stroke-width="1"/>
      <circle cx="25" cy="60" r="8" fill="#FF8563" stroke="#E55A2B" stroke-width="1"/>
      <rect x="-50" y="40" width="100" height="3" fill="#FF8563"/>
      <rect x="-50" y="77" width="100" height="3" fill="#D44820"/>
      
      <!-- Green Brick -->
      <rect x="50" y="40" width="100" height="40" fill="#28A745" stroke="#1E7E34" stroke-width="1"/>
      <circle cx="75" cy="60" r="8" fill="#5CBF72" stroke="#1E7E34" stroke-width="1"/>
      <circle cx="125" cy="60" r="8" fill="#5CBF72" stroke="#1E7E34" stroke-width="1"/>
      <rect x="50" y="40" width="100" height="3" fill="#5CBF72"/>
      <rect x="50" y="77" width="100" height="3" fill="#155724"/>
      
      <!-- Blue Brick -->
      <rect x="150" y="40" width="100" height="40" fill="#007BFF" stroke="#0056B3" stroke-width="1"/>
      <circle cx="175" cy="60" r="8" fill="#3399FF" stroke="#0056B3" stroke-width="1"/>
      <circle cx="225" cy="60" r="8" fill="#3399FF" stroke="#0056B3" stroke-width="1"/>
      <rect x="150" y="40" width="100" height="3" fill="#3399FF"/>
      <rect x="150" y="77" width="100" height="3" fill="#0043A3"/>
      
      <!-- Red Brick -->
      <rect x="250" y="40" width="100" height="40" fill="#DC3545" stroke="#C82333" stroke-width="1"/>
      <circle cx="275" cy="60" r="8" fill="#E57373" stroke="#C82333" stroke-width="1"/>
      <circle cx="325" cy="60" r="8" fill="#E57373" stroke="#C82333" stroke-width="1"/>
      <rect x="250" y="40" width="100" height="3" fill="#E57373"/>
      <rect x="250" y="77" width="100" height="3" fill="#A71E2A"/>
      
      <!-- Yellow Brick -->
      <rect x="350" y="40" width="100" height="40" fill="#FFC107" stroke="#E0A800" stroke-width="1"/>
      <circle cx="375" cy="60" r="8" fill="#FFD54F" stroke="#E0A800" stroke-width="1"/>
      <circle cx="425" cy="60" r="8" fill="#FFD54F" stroke="#E0A800" stroke-width="1"/>
      <rect x="350" y="40" width="100" height="3" fill="#FFD54F"/>
      <rect x="350" y="77" width="100" height="3" fill="#B8860B"/>
      
      <!-- Purple Brick -->
      <rect x="450" y="40" width="100" height="40" fill="#6F42C1" stroke="#59359A" stroke-width="1"/>
      <circle cx="475" cy="60" r="8" fill="#9A6DD7" stroke="#59359A" stroke-width="1"/>
      <circle cx="525" cy="60" r="8" fill="#9A6DD7" stroke="#59359A" stroke-width="1"/>
      <rect x="450" y="40" width="100" height="3" fill="#9A6DD7"/>
      <rect x="450" y="77" width="100" height="3" fill="#4A2C85"/>
      
    </pattern>
  </defs>
  
  <!-- Background with multi-colored pattern -->
  <rect x="0" y="0" width="500" height="200" fill="url(#multiColorBrickPattern)"/>
</svg>