<svg xmlns="http://www.w3.org/2000/svg" width="200" height="100" viewBox="0 0 200 100">
  <defs>
    <!-- Lego Brick Pattern -->
    <pattern id="legoBrickPattern" x="0" y="0" width="100" height="50" patternUnits="userSpaceOnUse">
      <!-- Main brick body -->
      <rect x="0" y="10" width="100" height="40" fill="#FF6B35" stroke="#E55A2B" stroke-width="1"/>
      
      <!-- Brick studs -->
      <circle cx="25" cy="30" r="8" fill="#FF8563" stroke="#E55A2B" stroke-width="1"/>
      <circle cx="75" cy="30" r="8" fill="#FF8563" stroke="#E55A2B" stroke-width="1"/>
      
      <!-- Brick highlights and shadows -->
      <rect x="0" y="10" width="100" height="3" fill="#FF8563"/>
      <rect x="0" y="47" width="100" height="3" fill="#D44820"/>
      <rect x="0" y="10" width="3" height="40" fill="#FF8563"/>
      <rect x="97" y="10" width="3" height="40" fill="#D44820"/>
      
      <!-- Stud highlights -->
      <ellipse cx="25" cy="27" rx="6" ry="3" fill="#FFA583"/>
      <ellipse cx="75" cy="27" rx="6" ry="3" fill="#FFA583"/>
    </pattern>
    
    <!-- Blue Lego Brick -->
    <pattern id="blueBrickPattern" x="0" y="0" width="100" height="50" patternUnits="userSpaceOnUse">
      <rect x="0" y="10" width="100" height="40" fill="#007BFF" stroke="#0056B3" stroke-width="1"/>
      <circle cx="25" cy="30" r="8" fill="#3399FF" stroke="#0056B3" stroke-width="1"/>
      <circle cx="75" cy="30" r="8" fill="#3399FF" stroke="#0056B3" stroke-width="1"/>
      <rect x="0" y="10" width="100" height="3" fill="#3399FF"/>
      <rect x="0" y="47" width="100" height="3" fill="#0043A3"/>
      <rect x="0" y="10" width="3" height="40" fill="#3399FF"/>
      <rect x="97" y="10" width="3" height="40" fill="#0043A3"/>
      <ellipse cx="25" cy="27" rx="6" ry="3" fill="#66B3FF"/>
      <ellipse cx="75" cy="27" rx="6" ry="3" fill="#66B3FF"/>
    </pattern>
    
    <!-- Green Lego Brick -->
    <pattern id="greenBrickPattern" x="0" y="0" width="100" height="50" patternUnits="userSpaceOnUse">
      <rect x="0" y="10" width="100" height="40" fill="#28A745" stroke="#1E7E34" stroke-width="1"/>
      <circle cx="25" cy="30" r="8" fill="#5CBF72" stroke="#1E7E34" stroke-width="1"/>
      <circle cx="75" cy="30" r="8" fill="#5CBF72" stroke="#1E7E34" stroke-width="1"/>
      <rect x="0" y="10" width="100" height="3" fill="#5CBF72"/>
      <rect x="0" y="47" width="100" height="3" fill="#155724"/>
      <rect x="0" y="10" width="3" height="40" fill="#5CBF72"/>
      <rect x="97" y="10" width="3" height="40" fill="#155724"/>
      <ellipse cx="25" cy="27" rx="6" ry="3" fill="#8BD59E"/>
      <ellipse cx="75" cy="27" rx="6" ry="3" fill="#8BD59E"/>
    </pattern>
    
    <!-- Yellow Lego Brick -->
    <pattern id="yellowBrickPattern" x="0" y="0" width="100" height="50" patternUnits="userSpaceOnUse">
      <rect x="0" y="10" width="100" height="40" fill="#FFC107" stroke="#E0A800" stroke-width="1"/>
      <circle cx="25" cy="30" r="8" fill="#FFD54F" stroke="#E0A800" stroke-width="1"/>
      <circle cx="75" cy="30" r="8" fill="#FFD54F" stroke="#E0A800" stroke-width="1"/>
      <rect x="0" y="10" width="100" height="3" fill="#FFD54F"/>
      <rect x="0" y="47" width="100" height="3" fill="#B8860B"/>
      <rect x="0" y="10" width="3" height="40" fill="#FFD54F"/>
      <rect x="97" y="10" width="3" height="40" fill="#B8860B"/>
      <ellipse cx="25" cy="27" rx="6" ry="3" fill="#FFF176"/>
      <ellipse cx="75" cy="27" rx="6" ry="3" fill="#FFF176"/>
    </pattern>
    
    <!-- Red Lego Brick -->
    <pattern id="redBrickPattern" x="0" y="0" width="100" height="50" patternUnits="userSpaceOnUse">
      <rect x="0" y="10" width="100" height="40" fill="#DC3545" stroke="#C82333" stroke-width="1"/>
      <circle cx="25" cy="30" r="8" fill="#E57373" stroke="#C82333" stroke-width="1"/>
      <circle cx="75" cy="30" r="8" fill="#E57373" stroke="#C82333" stroke-width="1"/>
      <rect x="0" y="10" width="100" height="3" fill="#E57373"/>
      <rect x="0" y="47" width="100" height="3" fill="#A71E2A"/>
      <rect x="0" y="10" width="3" height="40" fill="#E57373"/>
      <rect x="97" y="10" width="3" height="40" fill="#A71E2A"/>
      <ellipse cx="25" cy="27" rx="6" ry="3" fill="#F8BBD9"/>
      <ellipse cx="75" cy="27" rx="6" ry="3" fill="#F8BBD9"/>
    </pattern>
  </defs>
  
  <!-- Background with patterns -->
  <rect x="0" y="0" width="200" height="100" fill="url(#legoBrickPattern)"/>
</svg>